<?xml version="1.0" encoding="UTF-8" standalone="no"?>
<!DOCTYPE svg PUBLIC "-//W3C//DTD SVG 1.0//EN"
	"http://www.w3.org/TR/2001/REC-SVG-20010904/DTD/svg10.dtd"><svg
   xmlns:svg="http://www.w3.org/2000/svg"
   xmlns="http://www.w3.org/2000/svg"
   version="1.0"
   width="600"
   height="600"
   id="svg3697">
  <defs
     id="defs3699" />
  <g
     transform="translate(-341.69789,-119.88751)"
     id="layer1">
    <g
       transform="matrix(3.6698592,0,0,3.6698592,-912.28524,-1921.9984)"
       id="g3422">
      <g
         transform="matrix(0.9617296,0,0,0.9617296,66.643204,174.23856)"
         id="g4051">
        <path
           d="M 322.32184,401.39641 L 299.10675,401.39641 L 279.0019,389.78887 L 267.39436,369.68402 L 267.39436,346.46894 L 279.0019,326.36408 L 299.10675,314.75654 L 322.32183,314.75654 L 342.42669,326.36408 L 354.03423,346.46893 L 354.03423,369.68402 L 342.42669,389.78887 L 322.32184,401.39641 z "
           transform="matrix(1.9621448,0,0,1.9621448,-238.66643,-220.23573)"
           style="opacity:1;fill:#26113b;fill-opacity:1;stroke:none;stroke-width:4;stroke-linecap:round;stroke-linejoin:round;stroke-opacity:1"
           id="path4023" />
        <path
           d="M 322.32184,401.39641 L 299.10675,401.39641 L 279.0019,389.78887 L 267.39436,369.68402 L 267.39436,346.46894 L 279.0019,326.36408 L 299.10675,314.75654 L 322.32183,314.75654 L 342.42669,326.36408 L 354.03423,346.46893 L 354.03423,369.68402 L 342.42669,389.78887 L 322.32184,401.39641 z "
           transform="matrix(1.8351823,0,0,1.8351823,-199.21737,-174.77345)"
           style="opacity:1;fill:none;fill-opacity:0;stroke:#ffd42a;stroke-width:1.08981001;stroke-linecap:round;stroke-linejoin:round;stroke-opacity:1"
           id="path4021" />
        <path
           d="M 322.32184,401.39641 L 299.10675,401.39641 L 279.0019,389.78887 L 267.39436,369.68402 L 267.39436,346.46894 L 279.0019,326.36408 L 299.10675,314.75654 L 322.32183,314.75654 L 342.42669,326.36408 L 354.03423,346.46893 L 354.03423,369.68402 L 342.42669,389.78887 L 322.32184,401.39641 z "
           transform="matrix(1.2811646,0,0,1.2811646,-27.076154,23.607253)"
           style="opacity:1;fill:none;fill-opacity:0;stroke:#ffd42a;stroke-width:1.56107962;stroke-linecap:round;stroke-linejoin:round;stroke-opacity:1"
           id="path4025" />
        <path
           d="M 372.81249 483.27737 A 0.9151786 0.9151786 0 1 1  370.98213,483.27737 A 0.9151786 0.9151786 0 1 1  372.81249 483.27737 z"
           transform="matrix(13.112235,0,0,13.112151,-4505.4053,-5854.4435)"
           style="opacity:1;fill:#ffffff;fill-opacity:1;stroke:none;stroke-width:9.01166248;stroke-linecap:round;stroke-linejoin:round;stroke-opacity:1"
           id="path4027" />
        <path
           d="M 372.81249 483.27737 A 0.9151786 0.9151786 0 1 1  370.98213,483.27737 A 0.9151786 0.9151786 0 1 1  372.81249 483.27737 z"
           transform="matrix(21.853614,0,0,20.761056,-7756.8001,-9550.4866)"
           style="opacity:1;fill:none;fill-opacity:1;stroke:#ffffff;stroke-width:0.02347381;stroke-linecap:round;stroke-linejoin:round;stroke-opacity:1"
           id="path4029" />
        <path
           d="M 372.81249 483.27737 A 0.9151786 0.9151786 0 1 1  370.98213,483.27737 A 0.9151786 0.9151786 0 1 1  372.81249 483.27737 z"
           transform="matrix(27.863565,0,0,26.770596,-9991.3853,-12454.261)"
           style="opacity:1;fill:none;fill-opacity:1;stroke:#ffffff;stroke-width:0.01830723;stroke-linecap:round;stroke-linejoin:round;stroke-opacity:1"
           id="path4031" />
        <path
           d="M 372.81249 483.27737 A 0.9151786 0.9151786 0 1 1  370.98213,483.27737 A 0.9151786 0.9151786 0 1 1  372.81249 483.27737 z"
           transform="matrix(35.51217,0,0,34.41928,-12835.881,-16150.697)"
           style="opacity:1;fill:none;fill-opacity:1;stroke:#ffffff;stroke-width:0.01430146;stroke-linecap:round;stroke-linejoin:round;stroke-opacity:1"
           id="path4033" />
        <path
           d="M 372.81249 483.27737 A 0.9151786 0.9151786 0 1 1  370.98213,483.27737 A 0.9151786 0.9151786 0 1 1  372.81249 483.27737 z"
           transform="matrix(47.531385,0,0,45.892815,-17305.795,-21696.097)"
           style="opacity:1;fill:none;fill-opacity:1;stroke:#ffffff;stroke-width:0.01070551;stroke-linecap:round;stroke-linejoin:round;stroke-opacity:1"
           id="path4035" />
        <path
           d="M 372.81249 483.27737 A 0.9151786 0.9151786 0 1 1  370.98213,483.27737 A 0.9151786 0.9151786 0 1 1  372.81249 483.27737 z"
           transform="matrix(1.6392808,0,0,1.6392703,-250.14435,-325.35984)"
           style="opacity:1;fill:#ffffff;fill-opacity:1;stroke:none;stroke-width:9.01166248;stroke-linecap:round;stroke-linejoin:round;stroke-opacity:1"
           id="path4037" />
        <path
           d="M 372.81249 483.27737 A 0.9151786 0.9151786 0 1 1  370.98213,483.27737 A 0.9151786 0.9151786 0 1 1  372.81249 483.27737 z"
           transform="matrix(1.6392808,0,0,1.6392703,-225.14435,-288.35984)"
           style="opacity:1;fill:#ffffff;fill-opacity:1;stroke:none;stroke-width:9.01166248;stroke-linecap:round;stroke-linejoin:round;stroke-opacity:1"
           id="path4039" />
        <path
           d="M 372.81249 483.27737 A 0.9151786 0.9151786 0 1 1  370.98213,483.27737 A 0.9151786 0.9151786 0 1 1  372.81249 483.27737 z"
           transform="matrix(7.1027047,0,0,7.102695,-2308.4765,-2928.2099)"
           style="opacity:1;fill:none;fill-opacity:1;stroke:#ffffff;stroke-width:0.07039577;stroke-linecap:round;stroke-linejoin:round;stroke-opacity:1"
           id="path4047" />
        <path
           d="M 372.81249 483.27737 A 0.9151786 0.9151786 0 1 1  370.98213,483.27737 A 0.9151786 0.9151786 0 1 1  372.81249 483.27737 z"
           transform="matrix(1.6392808,0,0,1.6392703,-271.14435,-291.35984)"
           style="opacity:1;fill:#ffffff;fill-opacity:1;stroke:none;stroke-width:9.01166248;stroke-linecap:round;stroke-linejoin:round;stroke-opacity:1"
           id="path4041" />
        <path
           d="M 372.81249 483.27737 A 0.9151786 0.9151786 0 1 1  370.98213,483.27737 A 0.9151786 0.9151786 0 1 1  372.81249 483.27737 z"
           transform="matrix(1.6392808,0,0,1.6392703,-283.14388,-285.36029)"
           style="opacity:1;fill:#ffffff;fill-opacity:1;stroke:none;stroke-width:9.01166248;stroke-linecap:round;stroke-linejoin:round;stroke-opacity:1"
           id="path4043" />
        <path
           d="M 372.81249 483.27737 A 0.9151786 0.9151786 0 1 1  370.98213,483.27737 A 0.9151786 0.9151786 0 1 1  372.81249 483.27737 z"
           transform="matrix(3.2780776,0,0,3.2780566,-816.60847,-1094.8484)"
           style="opacity:1;fill:#ffffff;fill-opacity:1;stroke:none;stroke-width:9.01166248;stroke-linecap:round;stroke-linejoin:round;stroke-opacity:1"
           id="path4045" />
      </g>
      <g
         id="g3370">
        <path
           d="M 482.19795,600.71591 C 482.76705,596.0324 478.80773,593.96334 475.97161,595.60077 C 471.88019,597.96296 472.94764,601.7016 476.46999,604.02297"
           style="fill:none;fill-opacity:1;stroke:#ffffff;stroke-width:1.21377838;stroke-linecap:round;stroke-linejoin:miter;marker-start:none;stroke-miterlimit:4;stroke-dasharray:none;stroke-opacity:1"
           id="path7516" />
        <path
           d="M 444.0265,703.78099 C 448.68805,705.12565 451.44454,701.44978 450.25143,698.30547 C 448.53022,693.76943 444.55716,694.23918 441.61682,697.43057"
           style="fill:none;fill-opacity:1;stroke:#ffffff;stroke-width:1.21377838;stroke-linecap:round;stroke-linejoin:miter;marker-start:none;stroke-miterlimit:4;stroke-dasharray:none;stroke-opacity:1"
           id="path7518" />
        <path
           d="M 449.77824,697.74219 L 445.24221,699.4634"
           style="fill:none;fill-opacity:1;stroke:#ffffff;stroke-width:1.21377838;stroke-linecap:round;stroke-linejoin:miter;marker-start:none;stroke-miterlimit:4;stroke-dasharray:none;stroke-opacity:1"
           id="path7520" />
        <path
           d="M 419.01826,706.76527 C 422.91703,709.69148 426.81578,707.21977 426.81577,703.83909 C 426.81577,698.81156 422.49853,698.01726 418.48324,700.21357 C 418.48324,700.21357 418.33069,702.7602 418.33069,702.7602 C 418.33069,702.7602 421.2113,702.9433 421.2113,702.9433"
           style="fill:none;fill-opacity:1;stroke:#ffffff;stroke-width:1.21377838;stroke-linecap:round;stroke-linejoin:round;marker-start:none;stroke-miterlimit:4;stroke-dasharray:none;stroke-opacity:1"
           id="path7522" />
        <path
           d="M 488.5015,666.29821 L 485.86876,671.35736"
           style="fill:none;fill-opacity:1;stroke:#ffffff;stroke-width:1.21377838;stroke-linecap:round;stroke-linejoin:round;marker-start:none;stroke-miterlimit:4;stroke-dasharray:none;stroke-opacity:1"
           id="path7524" />
        <path
           d="M 487.18512,668.82779 L 479.65089,664.90704"
           style="fill:none;fill-opacity:1;stroke:#ffffff;stroke-width:1.21377838;stroke-linecap:round;stroke-linejoin:round;marker-start:none;stroke-miterlimit:4;stroke-dasharray:none;stroke-opacity:1"
           id="path7526" />
        <path
           d="M 481.40606,661.53428 L 477.86164,668.34533"
           style="fill:none;fill-opacity:1;stroke:#ffffff;stroke-width:1.21377838;stroke-linecap:round;stroke-linejoin:round;marker-start:none;stroke-miterlimit:4;stroke-dasharray:none;stroke-opacity:1"
           id="path7528" />
        <path
           d="M 494.71969,641.98494 C 484.30486,640.42221 486.34157,639.7527 485.19682,647.3819"
           style="fill:none;fill-opacity:1;stroke:#ffffff;stroke-width:1.21377838;stroke-linecap:round;stroke-linejoin:round;marker-start:none;stroke-miterlimit:4;stroke-dasharray:none;stroke-opacity:1"
           id="path7530" />
        <path
           d="M 469.04123,680.20693 L 474.87748,686.35972 L 462.88843,686.04318 L 468.72471,692.19599"
           style="fill:none;fill-opacity:1;stroke:#ffffff;stroke-width:1.21377838;stroke-linecap:round;stroke-linejoin:round;marker-start:none;stroke-miterlimit:4;stroke-dasharray:none;stroke-opacity:1"
           id="path7532" />
        <path
           d="M 483.27697,618.38939 C 485.7734,617.72 485.25713,617.85843 487.23725,617.32749 C 487.40775,617.96328 488.83009,623.26792 488.83009,623.26792 C 488.83009,623.26792 489.36105,625.24806 491.3412,624.71712 C 493.32133,624.18618 493.97412,618.70487 490.20748,616.53107 C 490.20748,616.53107 488.503,616.9881 487.23725,617.32749"
           style="fill:none;fill-opacity:1;stroke:#ffffff;stroke-width:1.21377838;stroke-linecap:round;stroke-linejoin:round;marker-start:none;stroke-miterlimit:4;stroke-dasharray:none;stroke-opacity:1"
           id="path7534" />
        <path
           d="M 488.56463,622.27786 C 488.37098,625.51354 485.40075,626.30995 485.40075,626.30995"
           style="fill:none;fill-opacity:1;stroke:#ffffff;stroke-width:1.21377838;stroke-linecap:round;stroke-linejoin:round;marker-start:none;stroke-miterlimit:4;stroke-dasharray:none;stroke-opacity:1"
           id="path7536" />
        <path
           d="M 379.65159,594.63589 C 377.92581,592.91001 378.28271,593.26693 376.91386,591.89796 C 378.28209,590.52983 383.0712,587.10998 381.01792,585.05654 C 378.96463,583.00309 374.17551,586.42296 374.86057,589.84452 C 374.86057,589.84452 376.03886,591.0229 376.91386,591.89796"
           style="fill:none;fill-opacity:1;stroke:#ffffff;stroke-width:1.21377838;stroke-linecap:round;stroke-linejoin:round;marker-start:none;stroke-miterlimit:4;stroke-dasharray:none;stroke-opacity:1"
           id="path7538" />
        <path
           d="M 375.04474,678.14202 C 372.93891,679.61784 373.3744,679.31262 371.70409,680.48326 C 371.3282,679.94694 368.19219,675.47227 368.19219,675.47227 C 368.19219,675.47227 367.02155,673.80196 365.35122,674.97259 C 363.68091,676.14321 364.93714,681.48966 369.19859,682.23922 C 369.19859,682.23922 370.63638,681.23156 371.70409,680.48326"
           style="fill:none;fill-opacity:1;stroke:#ffffff;stroke-width:1.21377838;stroke-linecap:round;stroke-linejoin:round;marker-start:none;stroke-miterlimit:4;stroke-dasharray:none;stroke-opacity:1"
           id="path7540" />
        <path
           d="M 368.77751,676.30743 C 367.85672,673.21662 370.36221,671.46068 370.36221,671.46068"
           style="fill:none;fill-opacity:1;stroke:#ffffff;stroke-width:1.21377838;stroke-linecap:round;stroke-linejoin:round;marker-start:none;stroke-miterlimit:4;stroke-dasharray:none;stroke-opacity:1"
           id="path7542" />
        <path
           d="M 492.50144,654.47806 C 482.57465,651.81817 484.62306,651.39283 482.67464,658.66452"
           style="fill:none;fill-opacity:1;stroke:#ffffff;stroke-width:1.21377838;stroke-linecap:round;stroke-linejoin:round;marker-start:none;stroke-miterlimit:4;stroke-dasharray:none;stroke-opacity:1"
           id="path7544" />
        <path
           d="M 471.40982,677.54838 C 471.40982,677.54838 474.81215,680.36246 474.81215,680.36246 C 479.5754,684.30218 484.64074,678.17798 479.87748,674.23827 C 479.87748,674.23827 476.47517,671.42421 476.47517,671.42421"
           style="fill:none;fill-opacity:1;stroke:#ffffff;stroke-width:1.21377838;stroke-linecap:round;stroke-linejoin:round;marker-start:none;stroke-miterlimit:4;stroke-dasharray:none;stroke-opacity:1"
           id="path7546" />
        <path
           d="M 479.19702,673.67546 L 474.13169,679.79964"
           style="fill:none;fill-opacity:1;stroke:#ffffff;stroke-width:1.21377838;stroke-linecap:round;stroke-linejoin:round;marker-start:none;stroke-miterlimit:4;stroke-dasharray:none;stroke-opacity:1"
           id="path7548" />
        <path
           d="M 493.6761,637.36453 C 496.6166,633.44385 494.13279,629.5232 490.7356,629.5232 C 485.83476,629.5232 484.85461,633.44385 486.81494,637.36453"
           style="fill:none;fill-opacity:1;stroke:#ffffff;stroke-width:1.21377838;stroke-linecap:round;stroke-linejoin:miter;marker-start:none;stroke-miterlimit:4;stroke-dasharray:none;stroke-opacity:1"
           id="path7550" />
        <path
           d="M 490.03405,629.76825 L 490.03405,634.66906"
           style="fill:none;fill-opacity:1;stroke:#ffffff;stroke-width:1.21377838;stroke-linecap:round;stroke-linejoin:miter;marker-start:none;stroke-miterlimit:4;stroke-dasharray:none;stroke-opacity:1"
           id="path7552" />
        <path
           d="M 438.32748,698.32784 L 439.34854,706.33358 L 430.32173,699.3489 L 431.3428,707.35468"
           style="fill:none;fill-opacity:1;stroke:#ffffff;stroke-width:1.21377838;stroke-linecap:round;stroke-linejoin:round;marker-start:none;stroke-miterlimit:4;stroke-dasharray:none;stroke-opacity:1"
           id="path7554" />
        <path
           d="M 360.47741,671.58996 L 357.76067,666.55367"
           style="fill:none;fill-opacity:1;stroke:#ffffff;stroke-width:1.21377838;stroke-linecap:round;stroke-linejoin:round;marker-start:none;stroke-miterlimit:4;stroke-dasharray:none;stroke-opacity:1"
           id="path7556" />
        <path
           d="M 359.11904,669.07182 L 366.67352,664.9967"
           style="fill:none;fill-opacity:1;stroke:#ffffff;stroke-width:1.21377838;stroke-linecap:round;stroke-linejoin:round;marker-start:none;stroke-miterlimit:4;stroke-dasharray:none;stroke-opacity:1"
           id="path7558" />
        <path
           d="M 368.48468,668.35425 L 364.82718,661.57391"
           style="fill:none;fill-opacity:1;stroke:#ffffff;stroke-width:1.21377838;stroke-linecap:round;stroke-linejoin:round;marker-start:none;stroke-miterlimit:4;stroke-dasharray:none;stroke-opacity:1"
           id="path7560" />
        <path
           d="M 403.90746,696.76689 L 400.66628,704.62769 L 396.04661,693.5257 L 392.80543,701.3865"
           style="fill:none;fill-opacity:1;stroke:#ffffff;stroke-width:1.21377838;stroke-linecap:round;stroke-linejoin:round;marker-start:none;stroke-miterlimit:4;stroke-dasharray:none;stroke-opacity:1"
           id="path7562" />
        <path
           d="M 372.84086,685.92034 C 373.53136,690.75376 378.04307,691.76596 380.43625,689.37279 C 383.8887,685.92034 381.81723,682.4679 377.6743,681.0869"
           style="fill:none;fill-opacity:1;stroke:#ffffff;stroke-width:1.21377838;stroke-linecap:round;stroke-linejoin:miter;marker-start:none;stroke-miterlimit:4;stroke-dasharray:none;stroke-opacity:1"
           id="path7564" />
        <path
           d="M 380.75785,688.70596 L 377.3054,685.25349"
           style="fill:none;fill-opacity:1;stroke:#ffffff;stroke-width:1.21377838;stroke-linecap:round;stroke-linejoin:miter;marker-start:none;stroke-miterlimit:4;stroke-dasharray:none;stroke-opacity:1"
           id="path7566" />
        <path
           d="M 382.52766,694.59271 C 384.37527,699.11746 389.00235,699.00139 390.74308,696.09491 C 393.2543,691.90198 390.40221,689.0544 386.04338,688.7226"
           style="fill:none;fill-opacity:1;stroke:#ffffff;stroke-width:1.21377838;stroke-linecap:round;stroke-linejoin:miter;marker-start:none;stroke-miterlimit:4;stroke-dasharray:none;stroke-opacity:1"
           id="path7568" />
        <path
           d="M 390.89293,695.36913 L 386.69998,692.85791"
           style="fill:none;fill-opacity:1;stroke:#ffffff;stroke-width:1.21377838;stroke-linecap:round;stroke-linejoin:miter;marker-start:none;stroke-miterlimit:4;stroke-dasharray:none;stroke-opacity:1"
           id="path7570" />
        <path
           d="M 412.73794,706.92582 L 406.99433,706.50154"
           style="fill:none;fill-opacity:1;stroke:#ffffff;stroke-width:1.21377838;stroke-linecap:round;stroke-linejoin:round;marker-start:none;stroke-miterlimit:4;stroke-dasharray:none;stroke-opacity:1"
           id="path7572" />
        <path
           d="M 409.86614,706.71368 L 410.50256,698.09824"
           style="fill:none;fill-opacity:1;stroke:#ffffff;stroke-width:1.21377838;stroke-linecap:round;stroke-linejoin:round;marker-start:none;stroke-miterlimit:4;stroke-dasharray:none;stroke-opacity:1"
           id="path7574" />
        <path
           d="M 414.33164,698.38111 L 406.59907,697.80991"
           style="fill:none;fill-opacity:1;stroke:#ffffff;stroke-width:1.21377838;stroke-linecap:round;stroke-linejoin:round;marker-start:none;stroke-miterlimit:4;stroke-dasharray:none;stroke-opacity:1"
           id="path7576" />
        <path
           d="M 363.92202,658.92332 L 355.56342,660.64003 L 362.2053,650.56471 L 353.84668,652.28143"
           style="fill:none;fill-opacity:1;stroke:#ffffff;stroke-width:1.21377838;stroke-linecap:round;stroke-linejoin:round;marker-start:none;stroke-miterlimit:4;stroke-dasharray:none;stroke-opacity:1"
           id="path7578" />
        <path
           d="M 353.00431,640.23003 C 350.34591,644.18065 352.95335,647.85964 356.25125,647.6895 C 361.15583,647.43652 361.71342,643.18494 359.36882,639.37844 C 359.36882,639.37844 356.87685,639.35775 356.87685,639.35775 C 356.87685,639.35775 356.84313,642.1771 356.84313,642.1771"
           style="fill:none;fill-opacity:1;stroke:#ffffff;stroke-width:1.21377838;stroke-linecap:round;stroke-linejoin:round;marker-start:none;stroke-miterlimit:4;stroke-dasharray:none;stroke-opacity:1"
           id="path7580" />
        <path
           d="M 357.35999,614.67799 C 353.48978,617.7072 354.88368,622.14691 358.18051,623.03029 C 362.93662,624.30466 364.9044,620.76571 364.01849,616.46213"
           style="fill:none;fill-opacity:1;stroke:#ffffff;stroke-width:1.21377838;stroke-linecap:round;stroke-linejoin:miter;marker-start:none;stroke-miterlimit:4;stroke-dasharray:none;stroke-opacity:1"
           id="path7582" />
        <path
           d="M 371.71755,603.48264 C 369.69854,601.96313 370.11609,602.27738 368.51465,601.07211 C 368.90164,600.55789 372.13047,596.26776 372.13047,596.26776 C 372.13047,596.26776 373.33573,594.66631 371.73428,593.46102 C 370.13283,592.25576 365.5182,595.0541 366.11246,599.26419 C 366.11246,599.26419 367.49097,600.30167 368.51465,601.07211"
           style="fill:none;fill-opacity:1;stroke:#ffffff;stroke-width:1.21377838;stroke-linecap:round;stroke-linejoin:round;marker-start:none;stroke-miterlimit:4;stroke-dasharray:none;stroke-opacity:1"
           id="path7584" />
        <path
           d="M 371.52783,597.06849 C 374.13647,595.26895 376.53864,597.07687 376.53864,597.07687"
           style="fill:none;fill-opacity:1;stroke:#ffffff;stroke-width:1.21377838;stroke-linecap:round;stroke-linejoin:round;marker-start:none;stroke-miterlimit:4;stroke-dasharray:none;stroke-opacity:1"
           id="path7586" />
        <path
           d="M 392.95668,579.78882 C 391.4144,577.39547 389.50471,577.13717 387.22979,578.45061 C 385.01693,579.72818 383.9982,581.69398 386.04489,584.41824 C 388.06253,587.10385 389.77135,586.77102 391.85204,585.56973 C 393.96379,584.35052 394.52651,582.2249 392.95668,579.78882 z "
           style="fill:none;fill-opacity:1;stroke:#ffffff;stroke-width:1.21377838;stroke-linecap:round;stroke-linejoin:round;marker-start:none;stroke-miterlimit:4;stroke-dasharray:none;stroke-opacity:1"
           id="path7588" />
        <path
           d="M 398.22971,581.79124 C 397.43646,579.39859 397.60052,579.89341 396.97131,577.99559 C 397.58068,577.79356 402.66477,576.10799 402.66477,576.10799 C 402.66477,576.10799 404.5626,575.47879 403.9334,573.58096 C 403.3042,571.68314 397.93044,571.35832 396.02752,575.14886 C 396.02752,575.14886 396.56913,576.78247 396.97131,577.99559"
           style="fill:none;fill-opacity:1;stroke:#ffffff;stroke-width:1.21377838;stroke-linecap:round;stroke-linejoin:round;marker-start:none;stroke-miterlimit:4;stroke-dasharray:none;stroke-opacity:1"
           id="path7590" />
        <path
           d="M 401.71586,576.42259 C 404.87719,576.4277 405.821,579.27444 405.821,579.27444"
           style="fill:none;fill-opacity:1;stroke:#ffffff;stroke-width:1.21377838;stroke-linecap:round;stroke-linejoin:round;marker-start:none;stroke-miterlimit:4;stroke-dasharray:none;stroke-opacity:1"
           id="path7592" />
        <path
           d="M 416.89314,577.09704 C 416.89314,577.09704 416.44731,572.78839 416.44731,572.78839 C 415.82317,566.75629 408.06759,567.55875 408.69175,573.59086 C 408.69175,573.59086 409.13756,577.8995 409.13756,577.8995"
           style="fill:none;fill-opacity:1;stroke:#ffffff;stroke-width:1.21377838;stroke-linecap:round;stroke-linejoin:round;marker-start:none;stroke-miterlimit:4;stroke-dasharray:none;stroke-opacity:1"
           id="path7594" />
        <path
           d="M 408.78091,574.4526 L 416.53647,573.65012"
           style="fill:none;fill-opacity:1;stroke:#ffffff;stroke-width:1.21377838;stroke-linecap:round;stroke-linejoin:round;marker-start:none;stroke-miterlimit:4;stroke-dasharray:none;stroke-opacity:1"
           id="path7596" />
        <path
           d="M 424.53178,577.2915 L 424.53178,568.21689"
           style="fill:none;fill-opacity:1;stroke:#ffffff;stroke-width:1.21377838;stroke-linecap:round;stroke-linejoin:round;marker-start:none;stroke-miterlimit:4;stroke-dasharray:none;stroke-opacity:1"
           id="path7598" />
        <path
           d="M 420.49861,568.21689 L 428.64332,568.21689"
           style="fill:none;fill-opacity:1;stroke:#ffffff;stroke-width:1.21377838;stroke-linecap:round;stroke-linejoin:round;marker-start:none;stroke-miterlimit:4;stroke-dasharray:none;stroke-opacity:1"
           id="path7600" />
        <path
           d="M 434.49297,569.34593 L 440.31643,569.96887"
           style="fill:none;fill-opacity:1;stroke:#ffffff;stroke-width:1.21377838;stroke-linecap:round;stroke-linejoin:round;marker-start:none;stroke-miterlimit:4;stroke-dasharray:none;stroke-opacity:1"
           id="path7602" />
        <path
           d="M 437.4047,569.65741 L 436.47029,578.39258"
           style="fill:none;fill-opacity:1;stroke:#ffffff;stroke-width:1.21377838;stroke-linecap:round;stroke-linejoin:round;marker-start:none;stroke-miterlimit:4;stroke-dasharray:none;stroke-opacity:1"
           id="path7604" />
        <path
           d="M 432.58799,577.97727 L 440.42803,578.81592"
           style="fill:none;fill-opacity:1;stroke:#ffffff;stroke-width:1.21377838;stroke-linecap:round;stroke-linejoin:round;marker-start:none;stroke-miterlimit:4;stroke-dasharray:none;stroke-opacity:1"
           id="path7606" />
        <path
           d="M 453.63567,583.54336 L 458.7482,576.77405 L 460.40499,588.65588 L 465.51751,581.88656"
           style="fill:none;fill-opacity:1;stroke:#ffffff;stroke-width:1.21377838;stroke-linecap:round;stroke-linejoin:round;marker-start:none;stroke-miterlimit:4;stroke-dasharray:none;stroke-opacity:1"
           id="path7608" />
        <path
           d="M 365.31086,603.92884 C 362.52796,603.32704 360.99495,604.49475 360.31509,607.03211 C 359.65374,609.50023 360.32342,611.61059 363.69697,612.08971 C 367.02268,612.56204 367.99568,611.11838 368.6175,608.79767 C 369.24861,606.44234 368.14348,604.54139 365.31086,603.92884 z "
           style="fill:none;fill-opacity:1;stroke:#ffffff;stroke-width:1.21377838;stroke-linecap:round;stroke-linejoin:round;marker-start:none;stroke-miterlimit:4;stroke-dasharray:none;stroke-opacity:1"
           id="path7610" />
        <path
           d="M 452.41014,579.3265 C 453.71168,576.79419 452.98055,575.01119 450.70561,573.69775 C 448.49277,572.42018 446.28097,572.52081 444.94503,575.65542 C 443.62805,578.74557 444.77069,580.05904 446.85141,581.26033 C 448.96315,582.47956 451.08532,581.90408 452.41014,579.3265 z "
           style="fill:none;fill-opacity:1;stroke:#ffffff;stroke-width:1.21377838;stroke-linecap:round;stroke-linejoin:round;marker-start:none;stroke-miterlimit:4;stroke-dasharray:none;stroke-opacity:1"
           id="path7612" />
        <path
           d="M 485.41412,613.70326 C 488.12509,612.83296 488.86882,611.05523 488.18897,608.51784 C 487.52763,606.04979 485.8925,604.55696 482.73136,605.82879 C 479.61499,607.08263 479.49427,608.81936 480.11611,611.1401 C 480.74723,613.49542 482.6547,614.58913 485.41412,613.70326 z "
           style="fill:none;fill-opacity:1;stroke:#ffffff;stroke-width:1.21377838;stroke-linecap:round;stroke-linejoin:round;marker-start:none;stroke-miterlimit:4;stroke-dasharray:none;stroke-opacity:1"
           id="path7614" />
      </g>
    </g>
  </g>
</svg>
